<svg preserveAspectRatio="none" overflow="visible" style="display: block;" width="319.956" height="18.5637" viewBox="0 0 319.956 18.5637" fill="none" xmlns="http://www.w3.org/2000/svg">
<g id="Group">
<path id="Vector" d="M319.956 18.5637C309.161 18.5637 303.737 14.9693 298.503 11.4807C293.701 8.28811 289.164 5.28579 279.962 5.28579C270.761 5.28579 266.223 8.29869 261.422 11.4807C256.178 14.9588 250.764 18.5637 239.969 18.5637C229.174 18.5637 223.75 14.9693 218.516 11.4807C213.715 8.28811 209.178 5.28579 199.976 5.28579C190.775 5.28579 186.237 8.29869 181.436 11.4807C176.191 14.9588 170.778 18.5637 159.983 18.5637C149.188 18.5637 143.764 14.9693 138.53 11.4807C133.729 8.28811 129.191 5.28579 119.99 5.28579C110.788 5.28579 106.251 8.29869 101.45 11.4807C96.2051 14.9588 90.7918 18.5637 79.9968 18.5637C69.2018 18.5637 63.7779 14.9693 58.544 11.4807C53.7427 8.28811 49.2053 5.28579 40.0037 5.28579C30.8021 5.28579 26.2646 8.29869 21.4633 11.4807C16.2188 14.9588 10.8055 18.5637 0 18.5637V13.2779C9.20158 13.2779 13.7391 10.265 18.5403 7.08295C23.7848 3.6049 29.1981 0 40.0037 0C50.8092 0 56.2225 3.59433 61.4564 7.08295C66.2577 10.2756 70.7952 13.2779 79.9968 13.2779C89.1984 13.2779 93.7358 10.265 98.5371 7.08295C103.782 3.6049 109.195 0 119.99 0C130.785 0 136.209 3.59433 141.443 7.08295C146.244 10.2756 150.781 13.2779 159.983 13.2779C169.185 13.2779 173.722 10.265 178.523 7.08295C183.768 3.6049 189.181 0 199.976 0C210.771 0 216.184 3.59433 221.429 7.08295C226.23 10.2756 230.768 13.2779 239.969 13.2779C249.171 13.2779 253.708 10.265 258.51 7.08295C263.754 3.6049 269.167 0 279.962 0C290.757 0 296.181 3.59433 301.415 7.08295C306.216 10.2756 310.754 13.2779 319.956 13.2779V18.5637Z" fill="#73C9BA"/>
</g>
</svg>
